<?xml version="1.0" standalone="no"?>
<!DOCTYPE svg PUBLIC "-//W3C//DTD SVG 1.1//EN" "http://www.w3.org/Graphics/SVG/1.1/DTD/svg11.dtd">
<svg xmlns="http://www.w3.org/2000/svg">
<metadata>Copyright (C) 2017 by original authors @ fontello.com</metadata>
<defs>
<font id="fontello" horiz-adv-x="1000" >
<font-face font-family="fontello" font-weight="400" font-stretch="normal" units-per-em="1000" ascent="850" descent="-150" />
<missing-glyph horiz-adv-x="1000" />
<glyph glyph-name="chaoshi" unicode="&#xe800;" d="M502 688c114 0 213-71 252-172h54c-42 129-163 223-306 223-144 0-265-94-307-223h54c39 101 138 172 253 172z m449-188h-898c-18 0-32-14-32-32v-108c0-18 14-32 32-32h26l69-356c0 0 4-50 43-50h624c39 0 43 50 43 50l69 356h24c17 0 31 14 31 32v108c0 18-14 32-31 32m-583-460c0-18-15-33-34-33s-33 15-33 33v274c0 18 15 33 33 33s34-15 34-33v-274m167 0c0-18-15-33-33-33-19 0-34 15-34 33v274c0 18 15 33 34 33 18 0 33-15 33-33v-274m167 0c0-18-15-33-33-33-19 0-34 15-34 33v274c0 18 15 33 34 33 18 0 33-15 33-33v-274z" horiz-adv-x="1000" />

<glyph glyph-name="chicken" unicode="&#xe801;" d="M882 558c-4 0-6 3-6 6-3 22-22 34-41 34-24 1-43-19-43-43 0-8 5-17 9-24 2-3 1-7-1-9l-96-92c-3-3-3-8 0-11l33-32c3-3 8-3 11 0l95 91c2 3 6 3 8 2 7-5 16-8 24-8 24 0 43 20 43 44 0 20-15 38-36 42z m-225-125c-11 10-30 8-48 0-27-13-69-28-112-30-51-2-117 11-192-3-33-5-65-16-94-32 0-1-1-1-2-2l0 0c-78-46-130-130-130-228 0-146 118-264 264-264 65 0 124 23 170 62l0 0c5 4 10 8 15 13 1 1 3 3 4 4 84 85 175 266 212 342 10 22 10 45-2 56-11 11-74 73-85 82z m-406-454c-24-13-64 12-90 58-26 45-27 93-3 107 24 13 64-13 90-58s27-93 3-107z" horiz-adv-x="1000" />

<glyph glyph-name="drink" unicode="&#xe802;" d="M383 711v-104l91 52c-21 29-54 48-91 52z m-111-52l90-52v104c-37-4-70-23-90-52z m90-193v104l-91-52c21-29 54-49 91-52z m-101 175c-7-16-12-34-12-53 0-18 5-36 12-52l91 53-91 52z m410 93c2 6 6 15 10 16 2 1 6-1 10-4 30-23 57-49 58-49l18 19c-1 2-28 27-59 51-16 12-28 12-36 9-19-7-26-30-27-35l-45-149h-46-4c-2 96-81 174-177 174-98 0-178-80-178-178 0-98 80-177 178-177 1 0 2 0 3 0-14-87-35-119-35-208 0-118 120-130 159-170v-115l-98-33v-18h98 35 10 35 98v18l-98 33v113c37 41 161 52 161 172 0 95-24 125-38 225-14 100 2 164 2 164h-77l43 142 0 0z m-443-146c0 80 65 145 145 145 78 0 142-63 144-141h-21c-1 17-5 34-12 49l-85-49h-23c0 0 15-57 4-148-2 0-5 0-7 0-80 0-145 65-145 144z m219-79c0 0 3-54-9-138-13-85-33-110-33-189 0-37 14-61 34-80-30 21-58 51-58 107 0 86 18 113 30 203 11 90-2 147-2 147h129 14 38l-16-50h-127z m226 51c0 0-4-19-6-51h-64l15 51h55z" horiz-adv-x="1000" />

<glyph glyph-name="eat" unicode="&#xe803;" d="M516 431c0-28-8-51-18-68 0 0 0 0 0 0 0-1 0-1-1-2 0-1 0-2 0-3 0-4 3-8 8-8 1 0 3 1 4 1 1 1 1 1 2 2 34 27 64 70 64 119 0 67-86 100-86 155 0 21 3 37 8 50 1 1 1 1 1 2 0 1 0 1 0 2 0 4-3 8-8 8-1 0-3-1-4-1-1-1-1-1-2-2-24-21-53-56-53-106 0-85 85-86 85-149h0z m-133-7c0-11-2-21-5-29-1-1-1-2-1-3 0 0 0-1 0-1 0-5 3-8 8-8 2 0 4 1 5 2 0 0 0 0 1 0 16 17 29 40 29 65 0 42-54 63-54 98 0 8 1 15 2 22 0 0 0 0 0 0 0 1 0 1 0 2 0 4-3 7-8 7-2 0-4 0-5-2-1 0-1 0-1-1-13-13-25-32-25-58 0-53 54-54 54-94l0 0z m448-290h-748c-8 0-14-6-14-14 0-1 1-3 1-5 0 0 1-1 1-1 0 0 0 0 0 0 21-43 49-83 84-118 18-17 36-33 55-46 0 0 0 0 1 0 1-1 3-2 4-3 0 0 0 0 0-1 9-7 15-18 15-30 0-2 0-5-1-7 0-1 0-2 0-4 0 0 0 0 0 0-1-1-1-2-1-3v-3c0-14 10-25 23-26h412c13 1 23 12 23 26v3c0 0 0 1 0 2-1 2-1 4-2 6 0 2 0 4 0 6 0 12 6 23 15 31 0 0 0 0 0 0 1 1 3 2 5 3 19 14 38 29 55 46 35 35 64 75 84 118 0 0 1 1 1 1 0 2 1 4 1 5 0 8-6 14-14 14l0 0z m-13 159h-722c-33 0-60-27-60-60 0-3 0-6 0-9l0 0c1-5 2-11 3-16 0 0 0 0 0 0 3-12 14-21 26-21h784c13 0 23 9 26 21v0c1 5 2 11 3 16h0c0 3 1 6 1 9 0 33-27 60-61 60l0 0z m126 225l-2 2c-8 7-20 8-28 2l-5-4-170-168c0 0 0 0 0 0-2-2-3-5-3-7 0-6 4-10 10-10h29c7 0 13 2 18 7 1 0 1 1 1 1l152 149c6 9 5 21-2 28l0 0z" horiz-adv-x="1000" />

<glyph glyph-name="flower" unicode="&#xe804;" d="M441 220l-107-108c41 9 64 9 75 8 0 0 0 0 0 1 12-1 25-3 36-6 66 15 136 13 168-46 14-26 19-59 15-91 0-2 0-4-1-6-2-4-5-6-10-6-55 1-114 10-149 51-1 2-2 4-4 5-30 45-16 78-77 78-5 0-10-1-16-1-20-3-41-7-62-13 0 0-1 0-1 0l-47-47c0 0 0-1-1-1l-164-165c-8-7-19-8-25-2-6 6-5 17 2 25l178 178c2 12 4 23 6 34 0 6 1 11 1 16-1 60-34 46-78 77-2 1-3 2-5 4-41 35-51 93-53 148 0 5 3 8 7 10l0 0c1 1 3 1 5 1 32 4 66-2 92-15 58-32 61-102 46-167 4-12 6-24 6-37 0 0 0 0 0 1 1-8 1-23-3-47l144 144c24 24 47 1 22-23z m487 360c-18-8-34-20-49-32-36 19-101 52-141 64 0 13 0 26-2 39 58-5 139-43 192-71l0 0z m-215 43c-32 8-118 17-134 16 30 21 66 53 89 83 9 11 17 23 25 37 12-40 20-93 20-136l0 0z m-364-154c9 103 163 145 249 139 114-6 222-53 323-117-38-4-78-35-100-70-26-41-30-94-54-137-20-38-48-78-89-96-40-17-84-7-123 14-57 30-108 77-149 127-32 39-62 89-57 140l0 0z" horiz-adv-x="1000" />

<glyph glyph-name="food" unicode="&#xe805;" d="M93 75h831c33 0 59 27 59 60 0 32-26 59-59 59h-5c-23 162-139 294-293 339 0 6 1 11 1 17 0 66-53 119-118 119-66 0-119-53-119-119 0-6 1-11 2-17-154-45-271-177-294-339h-5c-33 0-59-27-59-59 0-33 26-60 59-60l0 0 0 0z m416 534c32 0 59-26 59-59 0-2-1-3-1-4-19 2-39 4-58 4-20 0-40-2-59-4 0 1-1 2-1 4 0 33 27 59 60 59l0 0 0 0z m-251-317c39 61 98 108 170 128 1 1 3 1 4 1 0 0 1 1 1 1l0 0c2 0 3 0 5 0 17 0 31-13 31-30 0-15-11-27-25-30v0c-56-16-103-51-134-99-5-11-15-18-27-18-17 0-30 13-30 30 0 6 2 12 5 17l0 0 0 0z m666-276h-831c-33 0-59-27-59-60 0-32 26-59 59-59h831c33 0 59 27 59 59 0 33-26 60-59 60l0 0 0 0z" horiz-adv-x="1000" />

<glyph glyph-name="fruit" unicode="&#xe806;" d="M654 600c-122 0-228-70-281-171 18-4 35-9 51-16 36-15 68-37 95-64 28-28 49-60 64-96 16-36 24-76 24-116 0-40-8-80-24-117-5-13-12-27-20-40 29-8 60-13 91-13 175 0 316 142 316 316 0 175-141 317-316 317l0 0z m-235 172c0-51 26-101 71-131s101-33 148-13c0 51-26 100-71 130-46 30-102 33-148 14z m253-145c30-13 65-11 95 9 29 19 45 51 46 83-30 13-66 11-95-8-30-20-46-52-46-84l0 0z m-323-515l101-120c10 9 18 19 26 30 15 23 26 50 31 77-52 5-90 8-117 10-18 2-31 3-41 3z m-244 23c0-52 20-91 36-114l120 100-156 14z m201 205c-41-1-83-15-116-38l102-122 14 160z m47-191l15-1 143-12c-1 44-13 83-36 117-37-31-83-70-111-94-4-4-8-7-11-10z m-45-282c95 0 179 49 227 123 27 43 43 93 43 147 0 131-93 240-217 265-17 3-35 5-53 5-149 0-270-121-270-270 0-149 121-270 270-270z m0 504c14 0 28-1 41-3 110-20 193-116 193-231 0-49-14-94-40-131-42-63-113-104-194-104-130 0-235 105-235 235 0 130 105 234 235 234l0 0z m-37-434l13 156-119-100c29-29 66-49 106-56z m-109 341c-28-29-47-67-54-107l156-14-102 121z m260-309l-102 121-13-156h0c53 0 92 19 115 35z m29 312c-29 29-67 49-109 56h0l0-3-4-45-10-112c6 6 14 12 22 19 30 25 71 60 101 85z" horiz-adv-x="1000" />

<glyph glyph-name="location" unicode="&#xe807;" d="M516 814c-197 0-356-159-356-355s356-592 356-592 356 396 356 592-160 355-356 355z m213-355c0-118-95-213-213-213-118 0-214 95-214 213 0 117 96 213 214 213 118 0 213-96 213-213z" horiz-adv-x="1000" />

<glyph glyph-name="my" unicode="&#xe808;" d="M869-103c-19 139-118 253-249 295 87 41 147 130 147 232 0 142-115 257-257 257-142 0-257-115-257-257 0-102 60-191 147-232-130-41-229-155-249-294-1-3-2-5-2-9 0-12 11-22 23-22 13 0 23 10 23 22 0 1 0 1 0 1 22 155 155 274 315 274 160 0 293-118 315-272 0-1 0-2 0-3 0-12 10-22 23-22 12 0 22 10 22 22 0 3 0 5-1 8l0 0z m-359 315c-117 0-212 95-212 212 0 117 95 212 212 212 117 0 212-95 212-212 0-117-95-212-212-212l0 0z" horiz-adv-x="1000" />

<glyph glyph-name="my2" unicode="&#xe809;" d="M797 321c-2 16-17 26-32 24-2 0-120-19-263-19-142 0-261 19-262 19-16 2-30-8-33-24-2-15 8-30 24-32 5-1 124-20 271-20 148 0 266 19 271 20 16 2 27 17 24 32z m-400-90c-16 0-28-13-28-29v-26c0-16 12-28 28-28 16 0 29 12 29 28v26c0 16-13 29-29 29z m210 0c-16 0-28-13-28-29v-26c0-16 12-28 28-28 16 0 29 12 29 28v26c0 16-13 29-29 29z m-105-204c38 0 66 27 76 43 8 13 4 30-9 39-13 8-30 5-39-8 0 0-11-16-28-16-16 0-27 14-27 15-9 14-26 18-40 9-13-8-17-26-9-39 10-16 37-43 76-43z m346 398c-10 18-41 67-95 113-11 11-29 10-40-2-10-12-9-30 3-41 55-48 84-101 84-102 3-5 7-10 12-13 30-18 46-34 42-67-19-137-73-225-168-277-1-1-3-2-4-2-12-6-33-17-37-43-8-50-36-54-92-58l-2 0c-40-2-84-1-135 5-41 4-50 19-53 42-5 34-30 48-45 56-3 1-5 2-7 4-90 52-141 138-160 270-5 32 6 52 35 67 0 0 1 0 2 0 11 0 21 6 26 16 1 2 89 186 288 186 16 0 29 12 29 28 0 16-13 29-29 29-201 0-304-153-332-203-73-32-82-89-76-131 22-149 84-251 188-312 3-1 6-3 8-4 15-8 15-9 16-13 7-54 42-85 104-92 37-4 71-6 102-6 15 0 29 0 42 1l2 0c51 3 128 8 145 103 2 1 4 3 7 4 2 1 4 2 5 3 111 60 176 165 197 319 10 70-36 104-62 120z m-258 141c16-5 33-11 49-19 4-2 8-3 13-3 10 0 20 6 25 16 7 14 1 31-13 38-19 10-38 17-58 23-16 5-31-4-36-19-4-15 4-31 20-36z m-170-137c4 0 8 0 11 2 15 6 22 23 16 37l-10 24c-6 14-23 21-38 15-14-6-21-23-15-37l10-24c5-11 15-17 26-17z m203-37l19 23c10 12 8 30-4 40-12 10-30 9-40-4l-19-23c-10-12-9-30 4-40 5-5 11-7 18-7 8 0 16 4 22 11z m-305-5c5-4 11-6 17-6 8 0 17 4 23 12 9 13 6 31-7 40l-19 14c-13 9-31 6-40-7-9-12-6-30 7-39l19-14z" horiz-adv-x="1000" />

<glyph glyph-name="order" unicode="&#xe80a;" d="M297 369h424v-48h-424v48z m0-212h259v-47h-259v47z m517-307h-612c-12 0-25 2-36 7-11 5-22 12-30 21-9 8-16 18-20 29-5 12-8 24-8 37v637c0 13 3 25 8 37 4 11 11 21 20 30 8 8 19 15 30 20 11 5 24 7 36 7h93v-47h-93c-26 0-47-21-47-47v-637c0-26 21-47 47-47h612c26 0 47 21 47 47v637c0 26-21 47-47 47h-92v47h92c13 0 25-2 37-7 11-5 21-12 30-20 9-9 15-19 20-30 5-12 7-24 7-37v-637c0-13-2-25-7-37-5-11-11-21-20-29-9-9-19-16-30-21-12-5-24-7-37-7z m-70 684h-471v153c0 32 26 59 59 59h61c21 43 66 71 115 71s94-28 116-71h61c32 0 59-27 59-59v-153l0 0z m-424 47h377v106c0 6-6 12-12 12h-93l-6 16c-11 33-42 55-78 55-35 0-66-22-77-55l-6-16h-93c-7 0-12-6-12-12v-106z" horiz-adv-x="1000" />

<glyph glyph-name="peisong" unicode="&#xe80b;" d="M910 194v19c11 5 55-17 55-17l16 17c-26 60-182 78-182 78l-93 247h101v103h-136l-61-73-105-23 10-30 110 16c13-13 46-268 46-268-41-25-75-101-75-101h-99c-46 38-45 129-45 129h-379c1-44-42-126-42-126 15-2 36-20 50-34-9-19-14-41-14-64 0-82 67-149 149-149 72 0 132 51 146 119h324c14-68 74-119 146-119 82 0 149 67 149 149 0 54-28 101-71 127z m-694-182c-31 0-56 24-56 55 0 31 25 56 56 56s56-25 56-56c-1-31-25-55-56-55z m616 0c-31 0-56 24-56 55 0 31 25 56 56 56s55-25 55-56c0-31-24-55-55-55z m-385 360c0-8-7-15-15-15h-339c-8 0-15 7-15 15l0 0c0 9 7 16 15 16h339c8 0 15-7 15-16l0 0z" horiz-adv-x="1000" />

<glyph glyph-name="pinpai" unicode="&#xe80c;" d="M883 482l-15 21c-7 10-16 32-17 44l-2 25c-3 31-26 64-53 78l-23 11c-11 5-29 21-36 31l-13 21c-17 26-53 45-84 44l-25-1c-12 0-35 5-46 12l-22 12c-27 15-67 15-94 0l-22-12c-11-7-34-12-46-12l-25 1c-31 1-67-17-83-44l-14-21c-7-10-24-26-36-31l-22-11c-28-14-51-47-54-78l-2-25c-1-12-9-34-17-44l-15-21c-18-25-23-64-11-93l9-23c5-12 8-35 6-47l-4-25c-4-31 10-68 34-88l19-16c10-8 23-27 27-40l8-23c2-4 4-9 6-13l-89-153h129l62-94 79 134c19-7 41-9 60-4l24 7c12 4 36 4 48 0l24-7c18-5 39-3 58 3l78-133 62 94h129l-88 150c3 5 6 11 8 16l8 24c4 12 17 31 27 39l19 16c24 20 38 57 34 88l-4 25c-2 12 1 35 6 47l9 23c12 29 7 68-11 93z m-383-420c-180 0-327 146-327 327s147 326 327 326c181 0 327-146 327-326s-146-327-327-327z m0 619c-161 0-292-131-292-292 0-162 131-293 292-293 162 0 292 131 292 293 0 161-130 292-292 292z m105-436l-101 54-101-52 20 112-81 81 113 16 52 101 50-102 113-18-82-79 17-113z" horiz-adv-x="1000" />

<glyph glyph-name="tianpin" unicode="&#xe80d;" d="M911 432c13-42 19-84 19-128 0-59-11-114-33-166-23-51-53-96-92-135s-84-69-135-91c-52-23-108-34-167-34s-114 11-165 34c-52 22-97 53-136 91s-69 84-91 135c-22 52-33 107-33 166s11 115 33 166 53 97 91 136 84 69 136 91 106 34 165 34c40 0 79-5 116-16 36-11 70-26 102-44-11-14-20-29-26-46-7-17-10-35-10-55 0-21 4-41 12-60 8-19 19-35 33-49 14-15 31-26 50-34s39-12 61-12c13 0 25 2 36 5 11 3 23 7 34 12z m-562 172c-9-2-15-6-20-13-5-7-7-15-6-23 2-9 6-15 13-20 7-4 15-6 23-5l60 11c8 1 15 5 20 12 5 7 6 15 5 23-1 8-5 15-12 19s-15 7-23 5l-60-9z m-105-277c7 6 11 12 12 20 2 9 0 16-5 23-6 7-12 12-20 13-8 1-15-1-22-6l-50-35c-7-5-11-12-13-19-2-8 0-16 5-23s12-11 20-13c8-1 16 0 23 5l50 35z m78-22c0-25 4-49 14-71 9-23 22-42 39-59 16-16 35-29 58-39 22-9 46-14 71-14 26 0 49 5 71 14s42 23 58 39c17 17 30 36 39 59s14 46 14 71-5 49-14 71c-9 22-22 41-39 58-16 16-36 29-58 39-22 9-45 14-71 14-25 0-49-5-71-14-23-10-42-23-58-39s-30-36-39-58c-10-22-14-46-14-71z m406-291c8 4 13 9 16 17 4 8 4 16 0 23-3 8-8 14-16 17-8 3-16 3-23 0l-57-23c-8-4-13-9-16-17-4-8-4-16 0-23 3-8 8-14 16-17 8-3 16-3 23 0l57 23z m138 216c3 8 3 16 0 24-3 7-9 13-17 16l-56 23c-8 4-16 4-23 0-8-4-14-9-17-17-3-8-3-15 1-23 3-7 9-13 17-16l55-23c8-4 16-4 23 0 8 3 14 8 17 16l0 0z" horiz-adv-x="1000" />

<glyph glyph-name="waimai1" unicode="&#xe80e;" d="M644 468c67 0 122 55 122 122 0 68-55 123-122 123s-123-55-123-123 55-122 123-122z m0 206c45 0 83-38 83-84s-38-83-83-83c-46 0-84 37-84 83s38 84 84 84z m-424-453c-96 0-175-79-175-175s79-175 175-175c97 0 175 78 175 175s-78 175-175 175z m0-311c-75 0-136 61-136 136 0 75 61 136 136 136 75 0 136-61 136-136 0-75-61-136-136-136z m545 311c-97 0-175-79-175-175s78-175 175-175c96 0 175 78 175 175s-79 175-175 175z m0-311c-75 0-136 61-136 136 0 75 61 136 136 136 75 0 136-61 136-136 0-75-61-136-136-136z m-598 327h105c36 0 66 29 66 66v105c0 36-29 66-66 66h-105c-36 0-66-30-66-66v-105c0-36 30-66 66-66z m73 198h32c15 0 27-12 27-27v-33h-59v60l0 0z m0-99h59v-33c0-15-12-27-27-27h-32v60l0 0z m-100 72c0 15 12 27 27 27h34v-60h-61v33z m0-72h61v-60h-34c-15 0-27 12-27 27l0 33z m262 1l101 123 118-104c4-3 8-5 13-5h112c11 0 20 9 20 20 0 10-9 19-20 19h-104l-128 112c-4 4-9 5-14 5-6 0-10-3-14-7l-125-152c-7-8-6-20 1-27l103-97v-206c0-11 9-20 20-20 11 0 19 9 19 20v215c0 5-2 10-6 14l-96 90z" horiz-adv-x="1000" />

<glyph glyph-name="waimai2" unicode="&#xe80f;" d="M157 336h215c28 0 51 22 51 50v85c0 28-23 50-51 50h-215c-28 0-50-22-50-50v-85c0-27 22-50 50-50z m-16 136c0 9 7 17 16 17h215c9 0 17-8 17-17v-85c0-9-8-17-17-17h-215c-9 0-16 8-16 17v85z m811-348l-181 407c21 1 37 19 37 39v42c0 23-18 39-39 39h-52l-2 6c-17 37-57 56-96 45-23-7-40-22-50-42-9-16-12-36-7-54h-11c-25 0-45-20-45-45 0-24 20-44 45-44h47l44-110h-20c-22 0-42-14-48-36l-54-192c-5-18-19-24-32-25-12 0-26 6-32 24l-20 64c-10 30-38 50-69 50h-201c-31 0-59-20-69-50l-41-127c-8-25-3-53 12-74 14-18 34-31 55-34 5-78 71-140 150-140 79 0 144 61 151 139h142c6-78 72-139 151-139 79 0 143 63 149 140h10c28 0 55 15 70 38s17 54 6 79l0 0z m-184 493c3 0 6-2 6-6v-42c0-3-3-6-6-6h-12l-24 53h36v1z m-496-715c-64 0-117 53-117 117 0 65 52 117 117 117s117-52 117-117c0-64-52-117-117-117z m444 0c-65 0-117 53-117 117 0 65 52 117 117 117s116-52 116-117c0-64-53-117-116-117z m201 162c-8-14-24-22-42-22h-11c-10 73-74 129-149 129s-139-57-150-129h-145c-10 73-73 129-149 129s-138-56-149-128c-11 2-23 9-29 19-10 13-13 29-8 44l41 127c6 17 20 27 37 27h201c16 0 32-11 36-27l20-64c9-29 35-47 65-47s55 19 64 48l56 193c3 6 9 12 16 12h70l-71 176h-69c-6 0-11 4-11 11 0 7 4 11 11 11h60l-15 35c-4 12-4 27 3 38 5 12 16 21 30 24 22 7 47-4 56-26l237-533c7-16 6-34-5-47z m-193 40c-9 0-17-8-17-17 0-9 8-16 17-16 22 0 40-18 40-40 0-9 7-17 16-17s17 8 17 17c-1 41-33 73-73 73z m-444 0c-9 0-17-8-17-17 0-9 8-16 17-16 22 0 40-18 40-40 0-9 8-17 17-17 9 0 17 8 17 17-2 41-34 73-74 73z" horiz-adv-x="1000" />

<glyph glyph-name="smile" unicode="&#xe810;" d="M187-118c-75 0-136 60-136 135 0 75 61 135 136 135 75 0 136-60 136-135 0-75-61-135-136-135l0 0z m0 220c-47 0-85-38-85-85s38-85 85-85 85 38 85 85c0 47-38 85-85 85z m626-220c-75 0-136 60-136 135 0 75 61 135 136 135s136-60 136-135c0-75-61-135-136-135z m0 220c-47 0-85-38-85-85s38-85 85-85 85 38 85 85c0 47-38 85-85 85z m-307-2c-165 0-179 120-179 121-1 14 9 26 23 28 13 1 26-9 27-23 0-3 11-75 129-75 118 0 128 72 128 75 2 13 13 22 25 22 1 0 2 0 3 0 14-1 24-13 22-27 0-1-13-121-178-121l0 0z m254 336c-12 0-23 9-25 22-3 24-17 76-42 76-24 0-37-52-39-76-1-13-13-23-27-22-14 1-24 13-23 27 4 45 28 121 89 121 62 0 87-76 92-120 2-14-8-27-22-28-1 0-2 0-3 0l0 0z m-341 0c-12 0-23 9-24 22-3 24-18 76-42 76-24 0-37-52-40-76-1-13-13-24-27-22-14 1-24 13-23 27 5 45 28 121 90 121 61 0 86-76 91-120 2-14-8-27-22-28-1 0-2 0-3 0l0 0z m258-441c0 6 1 12 2 17-54-27-115-42-179-42-64 0-125 15-179 42 1-5 2-11 2-17 0-12-2-25-6-36 56-25 118-39 183-39 65 0 127 14 183 39-4 11-6 24-6 36l0 0z m-497 136c-49 66-78 148-78 236 0 219 178 398 398 398 220 0 398-179 398-398 0-88-29-170-78-236 18-1 36-6 52-14 48 72 77 158 77 250 0 247-202 448-449 448-247 0-449-201-449-448 0-92 29-178 77-250 16 8 34 13 52 14l0 0z" horiz-adv-x="1000" />

<glyph glyph-name="shoping" unicode="&#xe811;" d="M792 809h-590l-169-290c0 0 0-99 0-116 4-29 16-58 34-80v-333c0-64 50-110 116-110h628c67 0 106 46 106 110v333c21 24 33 41 45 80 0 32 0 116 0 116l-170 290z m-568-44h537l134-243h-806l135 243z m581-842h-626c-33 0-67 35-67 67h0v67h763l0-61c0-32-37-73-70-73z m70 178h-763l0 0 0 0v199c18-15 52-22 67-22 31 0 79 37 100 79 23-41 59-79 101-79 45 0 101 35 117 73 16-37 64-73 107-73 43 0 88 41 110 84 27-44 59-84 114-84 8 0 40 8 47 9l0-186z m-64 248c-46 0-101 36-101 66h-22c0-30-45-66-90-66-43 0-89 37-89 66h-23c0-30-59-66-102-66-45 0-99 28-99 66h-22c0-30-47-67-90-67-44 0-89 26-89 67v64h828v-64l0 0c-1-41-60-67-101-66z" horiz-adv-x="1000" />

<glyph glyph-name="subtract" unicode="&#xe812;" d="M506 785c-249 0-451-202-451-451 0-249 202-451 451-451 249 0 450 202 450 451 0 249-201 451-450 451l0 0z m0-842c-216 0-391 176-391 391 0 216 175 391 391 391s390-175 390-391-175-391-390-391l0 0z m210 421h-421c-16 0-30-13-30-30 0-16 14-30 30-30h421c17 0 30 14 30 30 0 17-13 30-30 30l0 0z" horiz-adv-x="1000" />

<glyph glyph-name="add" unicode="&#xe813;" d="M500 790c-243 0-440-197-440-440 0-243 197-440 440-440 243 0 440 197 440 440 0 243-197 440-440 440l0 0z m0-825c-212 0-385 173-385 385s173 385 385 385 385-173 385-385-173-385-385-385z m165 413h-137v137c0 15-13 28-28 28-15 0-27-13-27-28v-137h-138c-15 0-27-13-27-28 0-15 12-27 27-27h138v-138c0-15 12-27 27-27 15 0 28 12 28 27v138h137c15 0 28 12 28 27 0 15-13 28-28 28l0 0z" horiz-adv-x="1000" />

<glyph glyph-name="cart" unicode="&#xe814;" d="M930 500c-5 7-14 11-22 11h-665l-41 147c-4 12-14 20-27 20l-99 3c-16 1-29-11-29-27-1-16 12-29 27-29l78-3 154-546c0 0 0 0 0 0 1-3 2-6 4-8 0 0 0-1 0-1 2-2 4-4 6-6 0 0 1 0 1 0 2-2 5-3 7-4 1 0 1 0 1 0 3-1 5-2 8-2 0 0 1 0 1 0h0 488c13 0 25 10 28 23l86 398c2 9 0 17-6 24l0 0 0 0 0 0z m-58-46l-21-100c0 0-1 0-1 0h-555l-25 100h602l0 0 0 0 0 0z m-46-214h-502l-15 57h529l-12-57 0 0 0 0 0 0z m-470-128l-18 71h476l-15-71h-443l0 0 0 0 0 0z m86-85c-34 0-62-28-62-63 0-35 28-63 62-63 34 0 62 28 62 63 0 35-28 63-62 63m289 0c-34 0-62-28-62-63 0-35 28-63 62-63 34 0 62 28 62 63 0 35-28 63-62 63" horiz-adv-x="1000" />

<glyph glyph-name="star" unicode="&#xe815;" d="M963 403c-67-81-185-215-185-215s19-147 30-248c5-51-32-73-74-53-79 40-200 102-228 116-27-14-150-75-230-115-43-20-80 2-75 53 11 101 30 248 30 248s-119 134-186 215c-24 30-9 71 38 79 96 18 244 47 244 47s82 150 133 242c29 56 48 49 51 47 9-3 23-13 41-47 51-92 131-242 131-242s147-29 242-47c46-8 61-50 38-80l0 0z" horiz-adv-x="1000" />
</font>
</defs>
</svg>
